<svg width="512" height="512" viewBox="0 0 512 512" fill="none" xmlns="http://www.w3.org/2000/svg">
<rect width="512" height="512" fill="#2F312A"/>
<path d="M145.66 176.379C145.367 176.77 144.244 178.332 142.291 181.066C140.338 183.801 137.701 187.316 134.381 191.613C131.158 195.812 127.35 200.646 122.955 206.115C118.561 211.584 113.824 217.199 108.746 222.961V284.045C113.824 289.123 118.512 294.055 122.809 298.84C127.203 303.527 131.012 307.775 134.234 311.584C137.457 315.295 140.045 318.322 141.998 320.666C143.951 323.01 145.074 324.328 145.367 324.621C145.855 325.402 146.197 326.184 146.393 326.965C146.686 327.648 146.832 328.479 146.832 329.455C146.832 331.701 146.051 333.508 144.488 334.875C143.023 336.242 141.314 336.926 139.361 336.926C138.189 336.926 137.018 336.682 135.846 336.193C134.771 335.705 133.844 334.924 133.062 333.85C132.965 333.85 131.891 332.629 129.84 330.188C127.887 327.648 125.152 324.377 121.637 320.373C118.219 316.369 114.117 311.828 109.332 306.75C104.645 301.672 99.5176 296.545 93.9512 291.369C88.4824 286.096 82.7207 280.969 76.666 275.988C70.709 271.008 64.7031 266.613 58.6484 262.805C57.2812 261.73 56.3535 260.656 55.8652 259.582C55.377 258.41 55.1328 257.287 55.1328 256.213C55.1328 255.041 55.377 253.918 55.8652 252.844C56.4512 251.672 57.1836 250.793 58.0625 250.207C64.0195 245.812 69.9766 240.734 75.9336 234.973C81.9883 229.113 87.75 223.156 93.2188 217.102C98.7852 211.047 103.961 205.09 108.746 199.23C113.531 193.371 117.682 188.146 121.197 183.557C124.811 178.869 127.643 175.109 129.693 172.277C131.842 169.348 132.965 167.834 133.062 167.736C133.648 166.662 134.479 165.832 135.553 165.246C136.725 164.66 137.994 164.367 139.361 164.367C141.51 164.367 143.268 165.246 144.635 167.004C146.1 168.664 146.832 170.373 146.832 172.131C146.832 173.889 146.441 175.305 145.66 176.379ZM339.02 150.891C339.02 152.258 338.629 153.674 337.848 155.139C316.266 189.904 292.975 224.719 267.975 259.582C242.975 294.348 215.924 329.797 186.822 365.93C184.967 367.98 182.965 369.006 180.816 369.006C178.57 369.006 176.715 368.176 175.25 366.516C173.785 364.953 173.053 363.195 173.053 361.242C173.053 359.68 173.443 358.264 174.225 356.994C198.248 319.689 219.732 283.801 238.678 249.328C257.623 214.758 274.371 180.969 288.922 147.961C290.484 144.738 292.877 143.127 296.1 143.127H331.109C333.355 143.127 335.211 143.957 336.676 145.617C338.238 147.18 339.02 148.938 339.02 150.891ZM453.424 262.805C447.271 266.613 441.168 271.008 435.113 275.988C429.156 280.969 423.395 286.096 417.828 291.369C412.359 296.545 407.232 301.672 402.447 306.75C397.662 311.828 393.512 316.369 389.996 320.373C386.578 324.377 383.844 327.648 381.793 330.188C379.742 332.629 378.717 333.85 378.717 333.85C377.35 335.9 375.348 336.926 372.711 336.926C370.465 336.926 368.609 336.193 367.145 334.729C365.68 333.166 364.947 331.408 364.947 329.455C364.947 327.697 365.533 326.086 366.705 324.621C366.9 324.328 367.926 323.01 369.781 320.666C371.734 318.322 374.322 315.295 377.545 311.584C380.768 307.775 384.576 303.527 388.971 298.84C393.365 294.055 398.15 289.123 403.326 284.045V222.961C398.248 217.199 393.512 211.584 389.117 206.115C384.723 200.646 380.865 195.812 377.545 191.613C374.225 187.316 371.588 183.801 369.635 181.066C367.682 178.332 366.607 176.77 366.412 176.379C365.436 175.109 364.947 173.693 364.947 172.131C364.947 169.885 365.729 168.029 367.291 166.564C368.951 165.1 370.758 164.367 372.711 164.367C375.445 164.367 377.545 165.49 379.01 167.736C379.01 167.834 380.035 169.348 382.086 172.277C384.234 175.109 387.066 178.869 390.582 183.557C394.098 188.146 398.248 193.371 403.033 199.23C407.818 205.09 412.945 211.047 418.414 217.102C423.98 223.156 429.742 229.113 435.699 234.973C441.754 240.734 447.76 245.812 453.717 250.207C454.791 250.793 455.621 251.672 456.207 252.844C456.793 253.918 457.086 255.041 457.086 256.213C457.086 257.58 456.695 258.85 455.914 260.021C455.133 261.096 454.303 262.023 453.424 262.805Z" fill="#E5E5E5"/>
</svg>
